<svg width="32" height="31" viewBox="0 0 32 31" fill="none" xmlns="http://www.w3.org/2000/svg">
<g id="email 1">
<path id="Vector" d="M4.7737 9.32839C5.42488 9.67174 14.4703 14.6029 14.8077 14.7805C15.1452 14.9581 15.4885 15.041 16.0213 15.041C16.5541 15.041 16.8974 14.9581 17.2348 14.7805C17.5723 14.6029 26.6177 9.67174 27.2689 9.32839C27.5116 9.20408 27.92 8.97912 28.0088 8.72457C28.1628 8.27467 27.997 8.103 27.3399 8.103H4.70267C4.04557 8.103 3.87982 8.28059 4.03373 8.72457C4.12253 8.98504 4.53099 9.20408 4.7737 9.32839Z" fill="white"/>
<path id="Vector_2" d="M27.7839 9.59477C27.2985 9.8434 22.9416 12.9454 20.0586 14.8101L24.9247 20.2859C25.0431 20.4043 25.0964 20.5464 25.0312 20.6174C24.9602 20.6825 24.8063 20.647 24.682 20.5345L18.8451 15.6093C17.963 16.1776 17.3414 16.5683 17.2349 16.6275C16.7791 16.8583 16.4594 16.8879 16.0213 16.8879C15.5833 16.8879 15.2636 16.8583 14.8078 16.6275C14.6953 16.5683 14.0796 16.1776 13.1976 15.6093L7.3607 20.5345C7.2423 20.6529 7.08247 20.6884 7.01143 20.6174C6.94039 20.5523 6.99367 20.4043 7.11207 20.2859L11.9722 14.8101C9.08927 12.9454 4.68496 9.8434 4.19953 9.59477C3.67859 9.32838 3.64899 9.64213 3.64899 9.88484V22.0204C3.64899 22.5709 4.46 23.2576 5.04014 23.2576H27.0025C27.5827 23.2576 28.2753 22.565 28.2753 22.0204V9.88484C28.2753 9.63621 28.3108 9.32838 27.7839 9.59477Z" fill="white"/>
</g>
</svg>
