<svg width="24" height="19" viewBox="0 0 24 19" fill="none" xmlns="http://www.w3.org/2000/svg">
<g clip-path="url(#clip0_406_85)">
<path d="M23.5715 3.1445H22.6393C22.2932 3.1445 21.8038 3.63931 21.8038 3.95601V15.4368C21.8038 15.7538 22.2932 16.1861 22.6393 16.1861H23.5715V18.9113H15.126V16.1861H16.8937V4.1177H16.807L12.6792 18.9113H9.48339L5.40873 4.1177H5.30562V16.1861H7.07328V18.9113H0.00262451V16.1861H0.908092C1.28087 16.1861 1.77029 15.7538 1.77029 15.4368V3.95592C1.77029 3.63922 1.28087 3.14441 0.908092 3.14441H0.00262451V0.419342H8.84408L11.7469 11.1252H11.827L14.7565 0.419342H23.5715V3.1445Z" fill="white"/>
</g>
<defs>
<clipPath id="clip0_406_85">
<rect width="23.5739" height="18.5223" fill="white" transform="translate(0 0.41925)"/>
</clipPath>
</defs>
</svg>
