<svg width="33" height="33" viewBox="0 0 33 33" fill="none" xmlns="http://www.w3.org/2000/svg">
<g id="telegram 1">
<path id="Vector" d="M21.706 13.015C22.4386 12.2824 23.1659 10.5729 20.1133 12.6487C17.2618 14.6112 14.3909 16.5454 11.5011 18.4512C11.0611 18.6502 10.5854 18.7582 10.1025 18.7686C9.61971 18.7791 9.13974 18.6919 8.69146 18.5122C6.85992 17.9628 4.7218 17.2302 4.7218 17.2302C4.7218 17.2302 3.26188 16.3131 5.761 15.3363C5.761 15.3363 16.3268 11.0003 19.9912 9.47268C21.3954 8.86217 26.1587 6.90853 26.1587 6.90853C26.1587 6.90853 28.3579 6.05249 28.1748 8.12956C28.1137 8.98427 27.6253 11.9784 27.1369 15.2142C26.4029 19.7943 25.6093 24.8032 25.6093 24.8032C25.6093 24.8032 25.4872 26.2074 24.4493 26.4516C23.3383 26.4328 22.2648 26.0463 21.3967 25.3526C21.1525 25.1695 16.8166 22.4208 15.2279 21.0777C15.0663 20.9682 14.935 20.8197 14.8463 20.6458C14.7575 20.472 14.7142 20.2785 14.7202 20.0834C14.7263 19.8883 14.7817 19.6979 14.8811 19.53C14.9805 19.362 15.1209 19.2219 15.289 19.1228C17.4679 17.1292 19.6073 15.0929 21.706 13.015Z" fill="white"/>
</g>
</svg>
