<svg width="26" height="26" viewBox="0 0 26 26" fill="none" xmlns="http://www.w3.org/2000/svg">
<g id="twitter 1" clip-path="url(#clip0_406_80)">
<path id="Vector" d="M25.5754 5.82063C24.6478 6.23364 23.6667 6.50813 22.6624 6.63564C23.7207 5.99469 24.5121 4.97976 24.8865 3.78311C23.8954 4.38309 22.8112 4.80561 21.6806 5.03237C20.9874 4.2768 20.0877 3.75151 19.0982 3.52475C18.1088 3.29799 17.0754 3.38024 16.1323 3.7608C15.1893 4.14137 14.3801 4.80267 13.81 5.65879C13.2399 6.5149 12.9352 7.52625 12.9355 8.56145C12.9355 8.97052 12.9694 9.36387 13.0526 9.73833C11.0414 9.63767 9.07363 9.10481 7.27797 8.17458C5.48231 7.24436 3.8992 5.93771 2.63213 4.34008C1.98298 5.47584 1.78229 6.82147 2.07093 8.10297C2.35957 9.38448 3.11583 10.5055 4.18573 11.2378C3.38544 11.2158 2.60204 10.9978 1.90157 10.6021V10.6588C1.90291 11.8505 2.30641 13.0053 3.04414 13.929C3.78187 14.8526 4.80878 15.4885 5.95202 15.7297C5.51952 15.8461 5.07378 15.9032 4.62653 15.8997C4.30531 15.9055 3.98442 15.876 3.6694 15.8116C3.99606 16.8359 4.62574 17.7316 5.47175 18.3755C6.31776 19.0193 7.33848 19.3796 8.39338 19.4067C6.60388 20.8354 4.39684 21.6104 2.12506 21.6079C1.71046 21.6079 1.31281 21.589 0.915163 21.5371C3.22688 23.0578 5.92069 23.8622 8.67081 23.8531C17.9739 23.8531 23.0601 15.9862 23.0601 9.1672C23.0601 8.93906 23.0524 8.71878 23.0416 8.50009C24.0387 7.77159 24.8974 6.86359 25.5754 5.82063Z" fill="white"/>
</g>
<defs>
<clipPath id="clip0_406_80">
<rect width="24.6602" height="25.174" fill="white" transform="translate(0.915432 0.252594)"/>
</clipPath>
</defs>
</svg>
